<?xml version="1.0" encoding="utf-8"?>
<!-- Generator: Adobe Illustrator 19.0.0, SVG Export Plug-In . SVG Version: 6.00 Build 0)  -->
<!DOCTYPE svg PUBLIC "-//W3C//DTD SVG 1.1//EN" "http://www.w3.org/Graphics/SVG/1.1/DTD/svg11.dtd">
<svg version="1.1" id="Layer_1" xmlns="http://www.w3.org/2000/svg" xmlns:xlink="http://www.w3.org/1999/xlink" x="0px" y="0px"
	 viewBox="0 0 300 300" style="enable-background:new 0 0 300 300;" xml:space="preserve">
<style type="text/css">
	.st0{enable-background:new    ;}
	.st1{fill:#EF4136;}
</style>
<g>
	<g class="st0">
		<path class="st1" d="M59.7,208.2c-0.5,0-1-0.6-1-1.1v-90.5c0-0.6,0.4-1.2,1-1.2h33.2c0.6,0,1.1,0.5,1.2,1.2l3.7,24.6
			c0.1,0.9,0.4,1.2,0.6,1.2c0.2,0,0.5-0.5,0.5-1.4l3-24.4c0.1-0.7,0.6-1.4,1.4-1.4h34.4c0.9,0,1.4,0.5,1.4,1.4V207
			c0,0.7-0.6,1.2-1.4,1.2h-22.4c-0.7,0-1.4-0.5-1.4-1.4v-38.8c0-1-0.1-1.4-0.4-1.4c-0.2,0-0.5,0.5-0.9,2.5l-6.4,38
			c-0.1,0.7-0.7,1-1.4,1h-14c-0.6,0-1.1-0.5-1.4-1.4l-5.7-35.4c-0.4-2.1-0.9-2.5-1.2-2.5c-0.4,0-0.6,0.6-0.6,1.6v36.3
			c0,0.9-0.4,1.4-1.2,1.4H59.7z"/>
		<path class="st1" d="M144.8,158.9c-0.9,0-0.9-0.6-0.9-6.4c0-9.8,7.6-18.6,20.4-18.6c13.6,0,21.2,8.5,21.2,18.2v33.6
			c0,1,0.4,1,3.1,1c0.5,0,0.9,0.5,0.9,1v7.7c0,6.1-5.3,13.3-12.3,13.3c-5.7,0-7.9-1.9-9.8-4.7c-0.6-0.9-1-1.1-1.2-1.1
			c-0.1,0-0.6,0.2-1.4,1.2c-1.4,1.9-4.3,4.2-8.7,4.2c-5.2,0-12.9-4.3-12.9-16.7v-9.2c0-9.8,6.6-15,13.4-17.8c9-3.8,9.5-5.2,9.5-9.5
			c0-1.7-0.7-2.6-1.9-2.6c-2,0-2,0.7-2,6.4c0,0.6-0.5,1-1.1,1L144.8,158.9z M166.2,176.4c0-0.5-0.2-0.9-0.7-1
			c-0.7,0-3.2,1.1-3.2,3.8v9.2c0,1.5,1,2.1,2,2.1c1,0,2-0.6,2-2.1V176.4z"/>
		<path class="st1" d="M193.6,208.2c-0.5,0-1-0.6-1-1.1V115c0-1.1,0.5-1.5,1.4-1.5h17.5c0.9,0,1.2,0.4,1.2,1.1v92.6c0,0.5-0.5,1-1,1
			H193.6z"/>
		<path class="st1" d="M218.6,208.2c-0.5,0-1-0.6-1-1.1V115c0-1.1,0.5-1.5,1.4-1.5h17.5c0.9,0,1.2,0.4,1.2,1.1v92.6c0,0.5-0.5,1-1,1
			H218.6z"/>
	</g>
	<g class="st0">
		<path class="st1" d="M58.7,65.7c0-0.6,0.4-1.1,1-1.1H76c11.4,0,18,8.5,18,15.9c0,5.3-0.1,13.4-9,16.1v0.2c5.5,2,9.2,7.9,9.2,14.8
			c0,4.5-0.1,19.1-18.3,19.1H59.6c-0.6,0-0.9-0.4-0.9-1V65.7z M74.4,89.5c0,0.4,0.3,0.6,0.6,0.6c1.2,0,2.6-0.8,2.6-2.6v-7.6
			c0-1.6-1.5-2.3-2.6-2.3c-0.4,0-0.6,0.2-0.6,0.5V89.5z M74.4,116.8c0,0.4,0.2,0.6,0.6,0.6c1.4,0,2.6-1.1,2.6-2.6v-9.2
			c0-1.5-1.3-2.4-2.7-2.4c-0.4,0-0.5,0.3-0.5,0.7V116.8z"/>
		<path class="st1" d="M101.2,66.8c0-0.6,0.4-1.1,0.9-1.1h14.9c0.6,0,0.9,0.3,0.9,0.8v40.5c0,1.6,1.1,2.1,1.9,2.1
			c0.9,0,1.9-0.5,1.9-2.1V66.6c0-0.5,0.4-0.8,0.8-0.8h15.4c0.6,0,1.1,0.3,1.1,0.7v62.2c0,0.4-0.4,0.7-0.9,0.7h-14
			c-0.7,0-1.4-3.7-2.1-3.7c-0.2,0-0.6,0.2-1.3,0.8c-2.1,1.8-4.1,2.9-8.4,2.9c-4.9,0-11.1-3.6-11.1-11V66.8z"/>
	</g>
	<g>
		<path class="st1" d="M168.7,89.5c-0.7,0.1-1-0.3-1-1c0-3.5-0.9-5.4-2.9-5.4c-1,0-2,0.8-2,2.1c0,2.4,3.9,5.8,11.1,11.5
			c7.7,5.9,11,10.9,11,18.2c0,9.8-5.6,19.4-21.6,19.4c-8.8,0-20.5-4.2-20.5-23.4c0-0.6,0.4-1,0.9-1l14.3-0.8c0.5,0,0.9,0.3,1,0.8
			c0.3,4.1,1.8,6.6,3.8,6.6c1.2,0,1.8-0.8,1.8-1.9c0-2.7-5-7.1-12.3-12.5c-5.4-3.8-10.1-9.9-10.1-18.5c0-10.2,9.3-17.8,20.9-17.8
			c15.7,0,22.4,10.6,22.4,21.9c0,0.6-0.7,1-1.3,1L168.7,89.5z"/>
	</g>
	<g>
		<path d="M110.4,239.2c-3.2-0.5-6.2,0-8.9,2c-3.9,3-5,7.3-4.6,12c-0.3,0-0.5,0.1-0.6,0c-12.2-2.4-24.4-4.9-36.6-7.3
			c-0.9-0.2-1-0.7-1-1.4c0-12-0.1-24.1-0.1-36.1c0-1.2,0.5-2.6,1.2-3.7c2.1-3.1,5.1-4.6,9-4.6c55.1,0,110.3,0.1,165.4,0.1
			c0.3,0,0.5,0,0.8,0c1.8,0.1,2.7,0.9,2.8,2.7c0.3,7.4,0.7,14.8,0.9,22.2c0,1.2,0.2,2.1,1.3,2.7c1,0.5,1.2,1.3,1.2,2.4
			c-0.1,6.2,0,12.4-0.1,18.5c0,3.4-1.1,4.4-4.5,4.4c-7.8,0-15.6,0-23.4,0c-0.5,0-1,0-1.5,0c1-5.2-0.4-9.3-4.6-12.2
			c-3.8-2.6-8.1-3-12.1-0.7c-4.9,2.8-6.6,7.3-5.7,12.9c-23.2,0-46.3,0-69.4,0C121.5,244.8,115.6,239.9,110.4,239.2z M106.2,208.8
			c-2.7,0-3.7,1-3.7,3.7c0,3.1,0,6.1,0,9.2c0,2.5,1.1,3.6,3.5,3.6c8.5,0,16.9,0,25.4,0c2.5,0,3.6-1.1,3.6-3.5c0-3.1,0-6.2,0-9.3
			c0-2.5-1.1-3.6-3.7-3.6c-4.2,0-8.5,0-12.7,0C114.5,208.8,110.4,208.8,106.2,208.8z M182.6,208.8c-2.7,0-3.7,1-3.8,3.7
			c0,3.1,0,6.1,0,9.2c0,2.5,1.1,3.6,3.5,3.6c8.5,0,16.9,0,25.4,0c2.5,0,3.5-1,3.6-3.5c0-3.2,0-6.3,0-9.5c0-2.4-1.1-3.4-3.5-3.4
			c-4.2,0-8.5,0-12.7,0C191,208.8,186.8,208.8,182.6,208.8z M169.3,225.3c2.9,0,3.9-1,3.9-3.9c0-3,0-5.9,0-8.9
			c0-2.7-1.1-3.7-3.7-3.7c-8.4,0-16.7,0-25.1,0c-2.7,0-3.7,1-3.7,3.7c0,3,0,5.9,0,8.9c0,2.9,1,3.9,3.8,3.9c4.1,0,8.3,0,12.4,0
			C161,225.3,165.1,225.3,169.3,225.3z M93.2,225.3c2.9,0,3.8-1,3.8-3.9c0-3.1,0-6.1,0-9.2c0-2.3-1.1-3.4-3.4-3.4
			c-7,0-14.1-0.1-21.1,0c-1.5,0-3.1,0.4-4.4,1c-2.3,1-3.6,2.9-3.6,5.5c0,2,0,4.1,0,6.1c0,2.7,1.1,3.7,3.7,3.7c4.2,0,8.5,0,12.7,0
			C85,225.3,89.1,225.3,93.2,225.3z M230.9,212.7c0-2.7-1-3.7-3.7-3.7c-1.7,0-3.4,0-5.1,0c-2.4,0.1-3.5,1.1-3.5,3.5
			c0,10.5,0,21,0,31.5c0,2.4,1.1,3.4,3.5,3.4c1.8,0,3.7,0,5.5,0c2.1,0,3.2-1.1,3.2-3.2c0-5.4,0-10.7,0-16.1
			C230.9,223,230.9,217.8,230.9,212.7z"/>
		<path d="M108.7,241.3c5,0.1,9.1,4.2,9.1,9.2c0,5.1-4.1,9.2-9.2,9.3c-5.1,0-9.2-4.1-9.2-9.2C99.4,245.5,103.7,241.3,108.7,241.3z
			 M108.6,255c2.4,0,4.5-2,4.4-4.5c0-2.5-2-4.4-4.5-4.4c-2.4,0-4.3,2-4.3,4.4C104.2,253,106.2,255,108.6,255z"/>
		<path d="M200.5,260c-5-0.1-9.1-4.2-9.1-9.2c0-5.1,4.1-9.2,9.2-9.2c5.1,0,9.2,4.1,9.2,9.2C209.7,255.9,205.6,260,200.5,260z
			 M200.7,255.1c2.4-0.1,4.3-2.1,4.3-4.5c0-2.4-2.1-4.4-4.4-4.4c-2.5,0-4.4,2-4.4,4.5C196.2,253.3,198.2,255.2,200.7,255.1z"/>
	</g>
</g>
</svg>
